<?xml version="1.0" encoding="UTF-8" ?>
<svg version="1.1" width="16384" height="16384" xmlns="http://www.w3.org/2000/svg" shape-rendering="crispEdges">
<rect x="7680" y="9344" width="128" height="128" fill="#000000" />
<rect x="7808" y="9344" width="128" height="128" fill="#000000" />
<rect x="7936" y="9344" width="128" height="128" fill="#000000" />
<rect x="8192" y="9344" width="128" height="128" fill="#000000" />
<rect x="8320" y="9344" width="128" height="128" fill="#000000" />
<rect x="7552" y="9472" width="128" height="128" fill="#000000" />
<rect x="7680" y="9472" width="128" height="128" fill="#000000" />
<rect x="7808" y="9472" width="128" height="128" fill="#000000" />
<rect x="7936" y="9472" width="128" height="128" fill="#000000" />
<rect x="8064" y="9472" width="128" height="128" fill="#000000" />
<rect x="8192" y="9472" width="128" height="128" fill="#000000" />
<rect x="8320" y="9472" width="128" height="128" fill="#000000" />
<rect x="8448" y="9472" width="128" height="128" fill="#000000" />
<rect x="7552" y="9600" width="128" height="128" fill="#000000" />
<rect x="7680" y="9600" width="128" height="128" fill="#000000" />
<rect x="7808" y="9600" width="128" height="128" fill="#000000" />
<rect x="7936" y="9600" width="128" height="128" fill="#000000" />
<rect x="8064" y="9600" width="128" height="128" fill="#000000" />
<rect x="8192" y="9600" width="128" height="128" fill="#000000" />
<rect x="8320" y="9600" width="128" height="128" fill="#000000" />
<rect x="8448" y="9600" width="128" height="128" fill="#000000" />
<rect x="8576" y="9600" width="128" height="128" fill="#000000" />
<rect x="7296" y="9728" width="128" height="128" fill="#000000" />
<rect x="7424" y="9728" width="128" height="128" fill="#000000" />
<rect x="7552" y="9728" width="128" height="128" fill="#000000" />
<rect x="7680" y="9728" width="128" height="128" fill="#000000" />
<rect x="7808" y="9728" width="128" height="128" fill="#000000" />
<rect x="7936" y="9728" width="128" height="128" fill="#000000" />
<rect x="8064" y="9728" width="128" height="128" fill="#000000" />
<rect x="8192" y="9728" width="128" height="128" fill="#000000" />
<rect x="8320" y="9728" width="128" height="128" fill="#000000" />
<rect x="8448" y="9728" width="128" height="128" fill="#000000" />
<rect x="8576" y="9728" width="128" height="128" fill="#000000" />
<rect x="8704" y="9728" width="128" height="128" fill="#000000" />
<rect x="7168" y="9856" width="128" height="128" fill="#000000" />
<rect x="7296" y="9856" width="128" height="128" fill="#000000" />
<rect x="7424" y="9856" width="128" height="128" fill="#000000" />
<rect x="7552" y="9856" width="128" height="128" fill="#000000" />
<rect x="7680" y="9856" width="128" height="128" fill="#000000" />
<rect x="7808" y="9856" width="128" height="128" fill="#000000" />
<rect x="7936" y="9856" width="128" height="128" fill="#000000" />
<rect x="8064" y="9856" width="128" height="128" fill="#000000" />
<rect x="8192" y="9856" width="128" height="128" fill="#000000" />
<rect x="8320" y="9856" width="128" height="128" fill="#000000" />
<rect x="8448" y="9856" width="128" height="128" fill="#000000" />
<rect x="8576" y="9856" width="128" height="128" fill="#000000" />
<rect x="8704" y="9856" width="128" height="128" fill="#000000" />
<rect x="8832" y="9856" width="128" height="128" fill="#000000" />
<rect x="7040" y="9984" width="128" height="128" fill="#000000" />
<rect x="7168" y="9984" width="128" height="128" fill="#000000" />
<rect x="7296" y="9984" width="128" height="128" fill="#000000" />
<rect x="7424" y="9984" width="128" height="128" fill="#000000" />
<rect x="7552" y="9984" width="128" height="128" fill="#000000" />
<rect x="7680" y="9984" width="128" height="128" fill="#000000" />
<rect x="7808" y="9984" width="128" height="128" fill="#000000" />
<rect x="7936" y="9984" width="128" height="128" fill="#000000" />
<rect x="8064" y="9984" width="128" height="128" fill="#000000" />
<rect x="8192" y="9984" width="128" height="128" fill="#000000" />
<rect x="8320" y="9984" width="128" height="128" fill="#000000" />
<rect x="8448" y="9984" width="128" height="128" fill="#000000" />
<rect x="8576" y="9984" width="128" height="128" fill="#000000" />
<rect x="8704" y="9984" width="128" height="128" fill="#000000" />
<rect x="8832" y="9984" width="128" height="128" fill="#000000" />
<rect x="7168" y="10112" width="128" height="128" fill="#000000" />
<rect x="7296" y="10112" width="128" height="128" fill="#000000" />
<rect x="7424" y="10112" width="128" height="128" fill="#EEC39A" />
<rect x="7552" y="10112" width="128" height="128" fill="#000000" />
<rect x="7680" y="10112" width="128" height="128" fill="#000000" />
<rect x="7808" y="10112" width="128" height="128" fill="#000000" />
<rect x="7936" y="10112" width="128" height="128" fill="#000000" />
<rect x="8064" y="10112" width="128" height="128" fill="#000000" />
<rect x="8192" y="10112" width="128" height="128" fill="#000000" />
<rect x="8320" y="10112" width="128" height="128" fill="#000000" />
<rect x="8448" y="10112" width="128" height="128" fill="#000000" />
<rect x="8576" y="10112" width="128" height="128" fill="#000000" />
<rect x="8704" y="10112" width="128" height="128" fill="#000000" />
<rect x="8832" y="10112" width="128" height="128" fill="#000000" />
<rect x="8960" y="10112" width="128" height="128" fill="#000000" />
<rect x="7168" y="10240" width="128" height="128" fill="#EEC39A" />
<rect x="7296" y="10240" width="128" height="128" fill="#EEC39A" />
<rect x="7424" y="10240" width="128" height="128" fill="#EEC39A" />
<rect x="7552" y="10240" width="128" height="128" fill="#EEC39A" />
<rect x="7680" y="10240" width="128" height="128" fill="#000000" />
<rect x="7808" y="10240" width="128" height="128" fill="#000000" />
<rect x="7936" y="10240" width="128" height="128" fill="#000000" />
<rect x="8064" y="10240" width="128" height="128" fill="#000000" />
<rect x="8192" y="10240" width="128" height="128" fill="#000000" />
<rect x="8320" y="10240" width="128" height="128" fill="#000000" />
<rect x="8448" y="10240" width="128" height="128" fill="#000000" />
<rect x="8576" y="10240" width="128" height="128" fill="#000000" />
<rect x="8704" y="10240" width="128" height="128" fill="#000000" />
<rect x="8832" y="10240" width="128" height="128" fill="#000000" />
<rect x="8960" y="10240" width="128" height="128" fill="#000000" />
<rect x="7168" y="10368" width="128" height="128" fill="#EEC39A" />
<rect x="7296" y="10368" width="128" height="128" fill="#EEC39A" />
<rect x="7424" y="10368" width="128" height="128" fill="#EEC39A" />
<rect x="7552" y="10368" width="128" height="128" fill="#EEC39A" />
<rect x="7680" y="10368" width="128" height="128" fill="#EEC39A" />
<rect x="7808" y="10368" width="128" height="128" fill="#EEC39A" />
<rect x="7936" y="10368" width="128" height="128" fill="#EEC39A" />
<rect x="8064" y="10368" width="128" height="128" fill="#000000" />
<rect x="8192" y="10368" width="128" height="128" fill="#000000" />
<rect x="8320" y="10368" width="128" height="128" fill="#000000" />
<rect x="8448" y="10368" width="128" height="128" fill="#000000" />
<rect x="8576" y="10368" width="128" height="128" fill="#000000" />
<rect x="8704" y="10368" width="128" height="128" fill="#000000" />
<rect x="8832" y="10368" width="128" height="128" fill="#000000" />
<rect x="7168" y="10496" width="128" height="128" fill="#EEC39A" />
<rect x="7296" y="10496" width="128" height="128" fill="#EEC39A" />
<rect x="7424" y="10496" width="128" height="128" fill="#EEC39A" />
<rect x="7552" y="10496" width="128" height="128" fill="#EEC39A" />
<rect x="7680" y="10496" width="128" height="128" fill="#EEC39A" />
<rect x="7808" y="10496" width="128" height="128" fill="#EEC39A" />
<rect x="7936" y="10496" width="128" height="128" fill="#EEC39A" />
<rect x="8064" y="10496" width="128" height="128" fill="#EEC39A" />
<rect x="8192" y="10496" width="128" height="128" fill="#000000" />
<rect x="8320" y="10496" width="128" height="128" fill="#000000" />
<rect x="8448" y="10496" width="128" height="128" fill="#EEC39A" />
<rect x="8576" y="10496" width="128" height="128" fill="#000000" />
<rect x="8704" y="10496" width="128" height="128" fill="#000000" />
<rect x="8832" y="10496" width="128" height="128" fill="#000000" />
<rect x="7168" y="10624" width="128" height="128" fill="#EEC39A" />
<rect x="7296" y="10624" width="128" height="128" fill="#EEC39A" />
<rect x="7424" y="10624" width="128" height="128" fill="#EEC39A" />
<rect x="7552" y="10624" width="128" height="128" fill="#EEC39A" />
<rect x="7680" y="10624" width="128" height="128" fill="#EEC39A" />
<rect x="7808" y="10624" width="128" height="128" fill="#EEC39A" />
<rect x="7936" y="10624" width="128" height="128" fill="#EEC39A" />
<rect x="8064" y="10624" width="128" height="128" fill="#EEC39A" />
<rect x="8192" y="10624" width="128" height="128" fill="#EEC39A" />
<rect x="8320" y="10624" width="128" height="128" fill="#EEC39A" />
<rect x="8448" y="10624" width="128" height="128" fill="#EEC39A" />
<rect x="8576" y="10624" width="128" height="128" fill="#EEC39A" />
<rect x="8704" y="10624" width="128" height="128" fill="#000000" />
<rect x="8832" y="10624" width="128" height="128" fill="#EEC39A" />
<rect x="7296" y="10752" width="128" height="128" fill="#EEC39A" />
<rect x="7424" y="10752" width="128" height="128" fill="#EEC39A" />
<rect x="7552" y="10752" width="128" height="128" fill="#EEC39A" />
<rect x="7680" y="10752" width="128" height="128" fill="#EEC39A" />
<rect x="7808" y="10752" width="128" height="128" fill="#EEC39A" />
<rect x="7936" y="10752" width="128" height="128" fill="#EEC39A" />
<rect x="8064" y="10752" width="128" height="128" fill="#EEC39A" />
<rect x="8192" y="10752" width="128" height="128" fill="#EEC39A" />
<rect x="8320" y="10752" width="128" height="128" fill="#EEC39A" />
<rect x="8448" y="10752" width="128" height="128" fill="#EEC39A" />
<rect x="8576" y="10752" width="128" height="128" fill="#EEC39A" />
<rect x="8704" y="10752" width="128" height="128" fill="#EEC39A" />
<rect x="7296" y="10880" width="128" height="128" fill="#EEC39A" />
<rect x="7424" y="10880" width="128" height="128" fill="#EEC39A" />
<rect x="7552" y="10880" width="128" height="128" fill="#EEC39A" />
<rect x="7680" y="10880" width="128" height="128" fill="#EEC39A" />
<rect x="7808" y="10880" width="128" height="128" fill="#EEC39A" />
<rect x="7936" y="10880" width="128" height="128" fill="#EEC39A" />
<rect x="8064" y="10880" width="128" height="128" fill="#EEC39A" />
<rect x="8192" y="10880" width="128" height="128" fill="#EEC39A" />
<rect x="8320" y="10880" width="128" height="128" fill="#EEC39A" />
<rect x="8448" y="10880" width="128" height="128" fill="#EEC39A" />
<rect x="8576" y="10880" width="128" height="128" fill="#EEC39A" />
<rect x="8704" y="10880" width="128" height="128" fill="#EEC39A" />
<rect x="7424" y="11008" width="128" height="128" fill="#EEC39A" />
<rect x="7552" y="11008" width="128" height="128" fill="#EEC39A" />
<rect x="7680" y="11008" width="128" height="128" fill="#EEC39A" />
<rect x="7808" y="11008" width="128" height="128" fill="#EEC39A" />
<rect x="7936" y="11008" width="128" height="128" fill="#EEC39A" />
<rect x="8064" y="11008" width="128" height="128" fill="#EEC39A" />
<rect x="8192" y="11008" width="128" height="128" fill="#EEC39A" />
<rect x="8320" y="11008" width="128" height="128" fill="#EEC39A" />
<rect x="8448" y="11008" width="128" height="128" fill="#EEC39A" />
<rect x="8576" y="11008" width="128" height="128" fill="#EEC39A" />
<rect x="7552" y="11136" width="128" height="128" fill="#EEC39A" />
<rect x="7680" y="11136" width="128" height="128" fill="#EEC39A" />
<rect x="7808" y="11136" width="128" height="128" fill="#EEC39A" />
<rect x="7936" y="11136" width="128" height="128" fill="#EEC39A" />
<rect x="8064" y="11136" width="128" height="128" fill="#EEC39A" />
<rect x="8192" y="11136" width="128" height="128" fill="#EEC39A" />
<rect x="8320" y="11136" width="128" height="128" fill="#EEC39A" />
<rect x="8448" y="11136" width="128" height="128" fill="#EEC39A" />
<rect x="7808" y="11264" width="128" height="128" fill="#EEC39A" />
<rect x="7936" y="11264" width="128" height="128" fill="#EEC39A" />
<rect x="8064" y="11264" width="128" height="128" fill="#EEC39A" />
<rect x="8192" y="11264" width="128" height="128" fill="#EEC39A" />
<rect x="7680" y="11392" width="128" height="128" fill="#696A6A" />
<rect x="7808" y="11392" width="128" height="128" fill="#696A6A" />
<rect x="7936" y="11392" width="128" height="128" fill="#696A6A" />
<rect x="8064" y="11392" width="128" height="128" fill="#696A6A" />
<rect x="8192" y="11392" width="128" height="128" fill="#696A6A" />
<rect x="8320" y="11392" width="128" height="128" fill="#696A6A" />
<rect x="7424" y="11520" width="128" height="128" fill="#696A6A" />
<rect x="7552" y="11520" width="128" height="128" fill="#696A6A" />
<rect x="7680" y="11520" width="128" height="128" fill="#696A6A" />
<rect x="7808" y="11520" width="128" height="128" fill="#696A6A" />
<rect x="7936" y="11520" width="128" height="128" fill="#696A6A" />
<rect x="8064" y="11520" width="128" height="128" fill="#696A6A" />
<rect x="8192" y="11520" width="128" height="128" fill="#696A6A" />
<rect x="8320" y="11520" width="128" height="128" fill="#696A6A" />
<rect x="8448" y="11520" width="128" height="128" fill="#696A6A" />
<rect x="7296" y="11648" width="128" height="128" fill="#696A6A" />
<rect x="7424" y="11648" width="128" height="128" fill="#696A6A" />
<rect x="7552" y="11648" width="128" height="128" fill="#696A6A" />
<rect x="7680" y="11648" width="128" height="128" fill="#696A6A" />
<rect x="7808" y="11648" width="128" height="128" fill="#696A6A" />
<rect x="7936" y="11648" width="128" height="128" fill="#696A6A" />
<rect x="8064" y="11648" width="128" height="128" fill="#696A6A" />
<rect x="8192" y="11648" width="128" height="128" fill="#696A6A" />
<rect x="8320" y="11648" width="128" height="128" fill="#696A6A" />
<rect x="8448" y="11648" width="128" height="128" fill="#696A6A" />
<rect x="8576" y="11648" width="128" height="128" fill="#696A6A" />
<rect x="7040" y="11776" width="128" height="128" fill="#CBCBCB" />
<rect x="7168" y="11776" width="128" height="128" fill="#696A6A" />
<rect x="7296" y="11776" width="128" height="128" fill="#696A6A" />
<rect x="7424" y="11776" width="128" height="128" fill="#696A6A" />
<rect x="7552" y="11776" width="128" height="128" fill="#696A6A" />
<rect x="7680" y="11776" width="128" height="128" fill="#696A6A" />
<rect x="7808" y="11776" width="128" height="128" fill="#696A6A" />
<rect x="7936" y="11776" width="128" height="128" fill="#696A6A" />
<rect x="8064" y="11776" width="128" height="128" fill="#696A6A" />
<rect x="8192" y="11776" width="128" height="128" fill="#696A6A" />
<rect x="8320" y="11776" width="128" height="128" fill="#696A6A" />
<rect x="8448" y="11776" width="128" height="128" fill="#696A6A" />
<rect x="8576" y="11776" width="128" height="128" fill="#696A6A" />
<rect x="8704" y="11776" width="128" height="128" fill="#696A6A" />
<rect x="6784" y="11904" width="128" height="128" fill="#CBCBCB" />
<rect x="6912" y="11904" width="128" height="128" fill="#CBCBCB" />
<rect x="7040" y="11904" width="128" height="128" fill="#CBCBCB" />
<rect x="7168" y="11904" width="128" height="128" fill="#CBCBCB" />
<rect x="7296" y="11904" width="128" height="128" fill="#696A6A" />
<rect x="7424" y="11904" width="128" height="128" fill="#696A6A" />
<rect x="7552" y="11904" width="128" height="128" fill="#696A6A" />
<rect x="7680" y="11904" width="128" height="128" fill="#696A6A" />
<rect x="7808" y="11904" width="128" height="128" fill="#FFFFFF" />
<rect x="7936" y="11904" width="128" height="128" fill="#FFFFFF" />
<rect x="8064" y="11904" width="128" height="128" fill="#696A6A" />
<rect x="8192" y="11904" width="128" height="128" fill="#696A6A" />
<rect x="8320" y="11904" width="128" height="128" fill="#696A6A" />
<rect x="8448" y="11904" width="128" height="128" fill="#696A6A" />
<rect x="8576" y="11904" width="128" height="128" fill="#696A6A" />
<rect x="8704" y="11904" width="128" height="128" fill="#696A6A" />
<rect x="8832" y="11904" width="128" height="128" fill="#696A6A" />
<rect x="6528" y="12032" width="128" height="128" fill="#CBCBCB" />
<rect x="6656" y="12032" width="128" height="128" fill="#CBCBCB" />
<rect x="6784" y="12032" width="128" height="128" fill="#CBCBCB" />
<rect x="6912" y="12032" width="128" height="128" fill="#CBCBCB" />
<rect x="7040" y="12032" width="128" height="128" fill="#CBCBCB" />
<rect x="7168" y="12032" width="128" height="128" fill="#696A6A" />
<rect x="7296" y="12032" width="128" height="128" fill="#696A6A" />
<rect x="7424" y="12032" width="128" height="128" fill="#696A6A" />
<rect x="7552" y="12032" width="128" height="128" fill="#696A6A" />
<rect x="7680" y="12032" width="128" height="128" fill="#FFFFFF" />
<rect x="7808" y="12032" width="128" height="128" fill="#FFFFFF" />
<rect x="7936" y="12032" width="128" height="128" fill="#FFFFFF" />
<rect x="8064" y="12032" width="128" height="128" fill="#FFFFFF" />
<rect x="8192" y="12032" width="128" height="128" fill="#696A6A" />
<rect x="8320" y="12032" width="128" height="128" fill="#696A6A" />
<rect x="8448" y="12032" width="128" height="128" fill="#696A6A" />
<rect x="8576" y="12032" width="128" height="128" fill="#696A6A" />
<rect x="8704" y="12032" width="128" height="128" fill="#696A6A" />
<rect x="8832" y="12032" width="128" height="128" fill="#696A6A" />
<rect x="6400" y="12160" width="128" height="128" fill="#CBCBCB" />
<rect x="6528" y="12160" width="128" height="128" fill="#CBCBCB" />
<rect x="6656" y="12160" width="128" height="128" fill="#CBCBCB" />
<rect x="6784" y="12160" width="128" height="128" fill="#CBCBCB" />
<rect x="6912" y="12160" width="128" height="128" fill="#CBCBCB" />
<rect x="7040" y="12160" width="128" height="128" fill="#696A6A" />
<rect x="7168" y="12160" width="128" height="128" fill="#696A6A" />
<rect x="7296" y="12160" width="128" height="128" fill="#696A6A" />
<rect x="7424" y="12160" width="128" height="128" fill="#696A6A" />
<rect x="7552" y="12160" width="128" height="128" fill="#FFFFFF" />
<rect x="7680" y="12160" width="128" height="128" fill="#FFFFFF" />
<rect x="7808" y="12160" width="128" height="128" fill="#FFFFFF" />
<rect x="7936" y="12160" width="128" height="128" fill="#FFFFFF" />
<rect x="8064" y="12160" width="128" height="128" fill="#696A6A" />
<rect x="8192" y="12160" width="128" height="128" fill="#696A6A" />
<rect x="8320" y="12160" width="128" height="128" fill="#696A6A" />
<rect x="8448" y="12160" width="128" height="128" fill="#696A6A" />
<rect x="8576" y="12160" width="128" height="128" fill="#696A6A" />
<rect x="8704" y="12160" width="128" height="128" fill="#696A6A" />
<rect x="8832" y="12160" width="128" height="128" fill="#696A6A" />
<rect x="6144" y="12288" width="128" height="128" fill="#CBCBCB" />
<rect x="6272" y="12288" width="128" height="128" fill="#CBCBCB" />
<rect x="6400" y="12288" width="128" height="128" fill="#CBCBCB" />
<rect x="6528" y="12288" width="128" height="128" fill="#CBCBCB" />
<rect x="6656" y="12288" width="128" height="128" fill="#CBCBCB" />
<rect x="7040" y="12288" width="128" height="128" fill="#696A6A" />
<rect x="7168" y="12288" width="128" height="128" fill="#FFFFFF" />
<rect x="7296" y="12288" width="128" height="128" fill="#FFFFFF" />
<rect x="7424" y="12288" width="128" height="128" fill="#FFFFFF" />
<rect x="7552" y="12288" width="128" height="128" fill="#FFFFFF" />
<rect x="7680" y="12288" width="128" height="128" fill="#FFFFFF" />
<rect x="7808" y="12288" width="128" height="128" fill="#696A6A" />
<rect x="7936" y="12288" width="128" height="128" fill="#696A6A" />
<rect x="8064" y="12288" width="128" height="128" fill="#696A6A" />
<rect x="8192" y="12288" width="128" height="128" fill="#696A6A" />
<rect x="8320" y="12288" width="128" height="128" fill="#696A6A" />
<rect x="8448" y="12288" width="128" height="128" fill="#696A6A" />
<rect x="8576" y="12288" width="128" height="128" fill="#696A6A" />
<rect x="8704" y="12288" width="128" height="128" fill="#696A6A" />
<rect x="8832" y="12288" width="128" height="128" fill="#696A6A" />
<rect x="5888" y="12416" width="128" height="128" fill="#CBCBCB" />
<rect x="6016" y="12416" width="128" height="128" fill="#CBCBCB" />
<rect x="6144" y="12416" width="128" height="128" fill="#CBCBCB" />
<rect x="6272" y="12416" width="128" height="128" fill="#CBCBCB" />
<rect x="6400" y="12416" width="128" height="128" fill="#CBCBCB" />
<rect x="6656" y="12416" width="128" height="128" fill="#FFFFFF" />
<rect x="6784" y="12416" width="128" height="128" fill="#FFFFFF" />
<rect x="6912" y="12416" width="128" height="128" fill="#FFFFFF" />
<rect x="7040" y="12416" width="128" height="128" fill="#FFFFFF" />
<rect x="7168" y="12416" width="128" height="128" fill="#FFFFFF" />
<rect x="7296" y="12416" width="128" height="128" fill="#FFFFFF" />
<rect x="7424" y="12416" width="128" height="128" fill="#FFFFFF" />
<rect x="7552" y="12416" width="128" height="128" fill="#FFFFFF" />
<rect x="7680" y="12416" width="128" height="128" fill="#696A6A" />
<rect x="7808" y="12416" width="128" height="128" fill="#696A6A" />
<rect x="7936" y="12416" width="128" height="128" fill="#696A6A" />
<rect x="8064" y="12416" width="128" height="128" fill="#696A6A" />
<rect x="8192" y="12416" width="128" height="128" fill="#696A6A" />
<rect x="8320" y="12416" width="128" height="128" fill="#696A6A" />
<rect x="8448" y="12416" width="128" height="128" fill="#696A6A" />
<rect x="8576" y="12416" width="128" height="128" fill="#696A6A" />
<rect x="8704" y="12416" width="128" height="128" fill="#696A6A" />
<rect x="8832" y="12416" width="128" height="128" fill="#696A6A" />
<rect x="5760" y="12544" width="128" height="128" fill="#CBCBCB" />
<rect x="5888" y="12544" width="128" height="128" fill="#CBCBCB" />
<rect x="6016" y="12544" width="128" height="128" fill="#CBCBCB" />
<rect x="6144" y="12544" width="128" height="128" fill="#CBCBCB" />
<rect x="6272" y="12544" width="128" height="128" fill="#CBCBCB" />
<rect x="6400" y="12544" width="128" height="128" fill="#FFFFFF" />
<rect x="6528" y="12544" width="128" height="128" fill="#FFFFFF" />
<rect x="6656" y="12544" width="128" height="128" fill="#FFFFFF" />
<rect x="6784" y="12544" width="128" height="128" fill="#FFFFFF" />
<rect x="6912" y="12544" width="128" height="128" fill="#FFFFFF" />
<rect x="7040" y="12544" width="128" height="128" fill="#FFFFFF" />
<rect x="7168" y="12544" width="128" height="128" fill="#FFFFFF" />
<rect x="7296" y="12544" width="128" height="128" fill="#FFFFFF" />
<rect x="7424" y="12544" width="128" height="128" fill="#FFFFFF" />
<rect x="7552" y="12544" width="128" height="128" fill="#696A6A" />
<rect x="7680" y="12544" width="128" height="128" fill="#696A6A" />
<rect x="7808" y="12544" width="128" height="128" fill="#696A6A" />
<rect x="7936" y="12544" width="128" height="128" fill="#696A6A" />
<rect x="8064" y="12544" width="128" height="128" fill="#696A6A" />
<rect x="8192" y="12544" width="128" height="128" fill="#696A6A" />
<rect x="8320" y="12544" width="128" height="128" fill="#696A6A" />
<rect x="8448" y="12544" width="128" height="128" fill="#696A6A" />
<rect x="8576" y="12544" width="128" height="128" fill="#696A6A" />
<rect x="8704" y="12544" width="128" height="128" fill="#696A6A" />
<rect x="5888" y="12672" width="128" height="128" fill="#CBCBCB" />
<rect x="6016" y="12672" width="128" height="128" fill="#CBCBCB" />
<rect x="6144" y="12672" width="128" height="128" fill="#FFFFFF" />
<rect x="6272" y="12672" width="128" height="128" fill="#FFFFFF" />
<rect x="6400" y="12672" width="128" height="128" fill="#FFFFFF" />
<rect x="6528" y="12672" width="128" height="128" fill="#FFFFFF" />
<rect x="6656" y="12672" width="128" height="128" fill="#FFFFFF" />
<rect x="6784" y="12672" width="128" height="128" fill="#FFFFFF" />
<rect x="6912" y="12672" width="128" height="128" fill="#FFFFFF" />
<rect x="7040" y="12672" width="128" height="128" fill="#FFFFFF" />
<rect x="7168" y="12672" width="128" height="128" fill="#696A6A" />
<rect x="7296" y="12672" width="128" height="128" fill="#696A6A" />
<rect x="7424" y="12672" width="128" height="128" fill="#696A6A" />
<rect x="7552" y="12672" width="128" height="128" fill="#696A6A" />
<rect x="7680" y="12672" width="128" height="128" fill="#696A6A" />
<rect x="7808" y="12672" width="128" height="128" fill="#696A6A" />
<rect x="7936" y="12672" width="128" height="128" fill="#696A6A" />
<rect x="8064" y="12672" width="128" height="128" fill="#696A6A" />
<rect x="8192" y="12672" width="128" height="128" fill="#696A6A" />
<rect x="8320" y="12672" width="128" height="128" fill="#696A6A" />
<rect x="8448" y="12672" width="128" height="128" fill="#696A6A" />
<rect x="8576" y="12672" width="128" height="128" fill="#696A6A" />
<rect x="8704" y="12672" width="128" height="128" fill="#696A6A" />
<rect x="6272" y="12800" width="128" height="128" fill="#FFFFFF" />
<rect x="6400" y="12800" width="128" height="128" fill="#FFFFFF" />
<rect x="6528" y="12800" width="128" height="128" fill="#FFFFFF" />
<rect x="7040" y="12800" width="128" height="128" fill="#696A6A" />
<rect x="7168" y="12800" width="128" height="128" fill="#696A6A" />
<rect x="7296" y="12800" width="128" height="128" fill="#696A6A" />
<rect x="7424" y="12800" width="128" height="128" fill="#696A6A" />
<rect x="7552" y="12800" width="128" height="128" fill="#696A6A" />
<rect x="7680" y="12800" width="128" height="128" fill="#696A6A" />
<rect x="7808" y="12800" width="128" height="128" fill="#696A6A" />
<rect x="7936" y="12800" width="128" height="128" fill="#696A6A" />
<rect x="8064" y="12800" width="128" height="128" fill="#696A6A" />
<rect x="8192" y="12800" width="128" height="128" fill="#696A6A" />
<rect x="8320" y="12800" width="128" height="128" fill="#696A6A" />
<rect x="8448" y="12800" width="128" height="128" fill="#696A6A" />
<rect x="8576" y="12800" width="128" height="128" fill="#696A6A" />
<rect x="8704" y="12800" width="128" height="128" fill="#696A6A" />
<rect x="7040" y="12928" width="128" height="128" fill="#696A6A" />
<rect x="7168" y="12928" width="128" height="128" fill="#696A6A" />
<rect x="7296" y="12928" width="128" height="128" fill="#696A6A" />
<rect x="7424" y="12928" width="128" height="128" fill="#696A6A" />
<rect x="7552" y="12928" width="128" height="128" fill="#696A6A" />
<rect x="7680" y="12928" width="128" height="128" fill="#696A6A" />
<rect x="7808" y="12928" width="128" height="128" fill="#696A6A" />
<rect x="7936" y="12928" width="128" height="128" fill="#696A6A" />
<rect x="8064" y="12928" width="128" height="128" fill="#696A6A" />
<rect x="8192" y="12928" width="128" height="128" fill="#696A6A" />
<rect x="8320" y="12928" width="128" height="128" fill="#696A6A" />
<rect x="8448" y="12928" width="128" height="128" fill="#696A6A" />
<rect x="8576" y="12928" width="128" height="128" fill="#696A6A" />
<rect x="8704" y="12928" width="128" height="128" fill="#696A6A" />
<rect x="7040" y="13056" width="128" height="128" fill="#696A6A" />
<rect x="7168" y="13056" width="128" height="128" fill="#696A6A" />
<rect x="7296" y="13056" width="128" height="128" fill="#696A6A" />
<rect x="7424" y="13056" width="128" height="128" fill="#696A6A" />
<rect x="7552" y="13056" width="128" height="128" fill="#696A6A" />
<rect x="7680" y="13056" width="128" height="128" fill="#696A6A" />
<rect x="7808" y="13056" width="128" height="128" fill="#696A6A" />
<rect x="7936" y="13056" width="128" height="128" fill="#696A6A" />
<rect x="8064" y="13056" width="128" height="128" fill="#696A6A" />
<rect x="8192" y="13056" width="128" height="128" fill="#696A6A" />
<rect x="8320" y="13056" width="128" height="128" fill="#696A6A" />
<rect x="8448" y="13056" width="128" height="128" fill="#696A6A" />
<rect x="8576" y="13056" width="128" height="128" fill="#696A6A" />
<rect x="8704" y="13056" width="128" height="128" fill="#696A6A" />
<rect x="7040" y="13184" width="128" height="128" fill="#696A6A" />
<rect x="7168" y="13184" width="128" height="128" fill="#696A6A" />
<rect x="7296" y="13184" width="128" height="128" fill="#696A6A" />
<rect x="7424" y="13184" width="128" height="128" fill="#696A6A" />
<rect x="7552" y="13184" width="128" height="128" fill="#696A6A" />
<rect x="7680" y="13184" width="128" height="128" fill="#696A6A" />
<rect x="7808" y="13184" width="128" height="128" fill="#696A6A" />
<rect x="7936" y="13184" width="128" height="128" fill="#696A6A" />
<rect x="8064" y="13184" width="128" height="128" fill="#696A6A" />
<rect x="8192" y="13184" width="128" height="128" fill="#696A6A" />
<rect x="8320" y="13184" width="128" height="128" fill="#696A6A" />
<rect x="8448" y="13184" width="128" height="128" fill="#696A6A" />
<rect x="8576" y="13184" width="128" height="128" fill="#696A6A" />
<rect x="8704" y="13184" width="128" height="128" fill="#696A6A" />
<rect x="7040" y="13312" width="128" height="128" fill="#696A6A" />
<rect x="7168" y="13312" width="128" height="128" fill="#696A6A" />
<rect x="7296" y="13312" width="128" height="128" fill="#696A6A" />
<rect x="7424" y="13312" width="128" height="128" fill="#696A6A" />
<rect x="7552" y="13312" width="128" height="128" fill="#696A6A" />
<rect x="7680" y="13312" width="128" height="128" fill="#696A6A" />
<rect x="7808" y="13312" width="128" height="128" fill="#696A6A" />
<rect x="7936" y="13312" width="128" height="128" fill="#696A6A" />
<rect x="8064" y="13312" width="128" height="128" fill="#FFFFFF" />
<rect x="8192" y="13312" width="128" height="128" fill="#696A6A" />
<rect x="8320" y="13312" width="128" height="128" fill="#696A6A" />
<rect x="8448" y="13312" width="128" height="128" fill="#696A6A" />
<rect x="8576" y="13312" width="128" height="128" fill="#696A6A" />
<rect x="8704" y="13312" width="128" height="128" fill="#696A6A" />
<rect x="7040" y="13440" width="128" height="128" fill="#696A6A" />
<rect x="7168" y="13440" width="128" height="128" fill="#696A6A" />
<rect x="7296" y="13440" width="128" height="128" fill="#696A6A" />
<rect x="7424" y="13440" width="128" height="128" fill="#696A6A" />
<rect x="7552" y="13440" width="128" height="128" fill="#696A6A" />
<rect x="7680" y="13440" width="128" height="128" fill="#696A6A" />
<rect x="7808" y="13440" width="128" height="128" fill="#696A6A" />
<rect x="7936" y="13440" width="128" height="128" fill="#FFFFFF" />
<rect x="8064" y="13440" width="128" height="128" fill="#FFFFFF" />
<rect x="8192" y="13440" width="128" height="128" fill="#FFFFFF" />
<rect x="8320" y="13440" width="128" height="128" fill="#696A6A" />
<rect x="8448" y="13440" width="128" height="128" fill="#696A6A" />
<rect x="8576" y="13440" width="128" height="128" fill="#696A6A" />
<rect x="8704" y="13440" width="128" height="128" fill="#696A6A" />
<rect x="7168" y="13568" width="128" height="128" fill="#696A6A" />
<rect x="7296" y="13568" width="128" height="128" fill="#696A6A" />
<rect x="7424" y="13568" width="128" height="128" fill="#696A6A" />
<rect x="7552" y="13568" width="128" height="128" fill="#696A6A" />
<rect x="7680" y="13568" width="128" height="128" fill="#696A6A" />
<rect x="7808" y="13568" width="128" height="128" fill="#FFFFFF" />
<rect x="7936" y="13568" width="128" height="128" fill="#FFFFFF" />
<rect x="8064" y="13568" width="128" height="128" fill="#FFFFFF" />
<rect x="8192" y="13568" width="128" height="128" fill="#FFFFFF" />
<rect x="8320" y="13568" width="128" height="128" fill="#696A6A" />
<rect x="8448" y="13568" width="128" height="128" fill="#696A6A" />
<rect x="8576" y="13568" width="128" height="128" fill="#696A6A" />
<rect x="7296" y="13696" width="128" height="128" fill="#CBCBCB" />
<rect x="7424" y="13696" width="128" height="128" fill="#696A6A" />
<rect x="7552" y="13696" width="128" height="128" fill="#696A6A" />
<rect x="7680" y="13696" width="128" height="128" fill="#696A6A" />
<rect x="7808" y="13696" width="128" height="128" fill="#FFFFFF" />
<rect x="7936" y="13696" width="128" height="128" fill="#FFFFFF" />
<rect x="8064" y="13696" width="128" height="128" fill="#FFFFFF" />
<rect x="8192" y="13696" width="128" height="128" fill="#696A6A" />
<rect x="8320" y="13696" width="128" height="128" fill="#696A6A" />
<rect x="8448" y="13696" width="128" height="128" fill="#696A6A" />
<rect x="7168" y="13824" width="128" height="128" fill="#CBCBCB" />
<rect x="7296" y="13824" width="128" height="128" fill="#CBCBCB" />
<rect x="7424" y="13824" width="128" height="128" fill="#CBCBCB" />
<rect x="7552" y="13824" width="128" height="128" fill="#696A6A" />
<rect x="7680" y="13824" width="128" height="128" fill="#FFFFFF" />
<rect x="7808" y="13824" width="128" height="128" fill="#FFFFFF" />
<rect x="7936" y="13824" width="128" height="128" fill="#FFFFFF" />
<rect x="8064" y="13824" width="128" height="128" fill="#696A6A" />
<rect x="8192" y="13824" width="128" height="128" fill="#696A6A" />
<rect x="8320" y="13824" width="128" height="128" fill="#696A6A" />
<rect x="7168" y="13952" width="128" height="128" fill="#CBCBCB" />
<rect x="7296" y="13952" width="128" height="128" fill="#CBCBCB" />
<rect x="7424" y="13952" width="128" height="128" fill="#CBCBCB" />
<rect x="7552" y="13952" width="128" height="128" fill="#696A6A" />
<rect x="7680" y="13952" width="128" height="128" fill="#FFFFFF" />
<rect x="7808" y="13952" width="128" height="128" fill="#FFFFFF" />
<rect x="7936" y="13952" width="128" height="128" fill="#FFFFFF" />
<rect x="8064" y="13952" width="128" height="128" fill="#696A6A" />
<rect x="8192" y="13952" width="128" height="128" fill="#696A6A" />
<rect x="7168" y="14080" width="128" height="128" fill="#CBCBCB" />
<rect x="7296" y="14080" width="128" height="128" fill="#CBCBCB" />
<rect x="7424" y="14080" width="128" height="128" fill="#CBCBCB" />
<rect x="7680" y="14080" width="128" height="128" fill="#FFFFFF" />
<rect x="7808" y="14080" width="128" height="128" fill="#FFFFFF" />
<rect x="7936" y="14080" width="128" height="128" fill="#FFFFFF" />
<rect x="7168" y="14208" width="128" height="128" fill="#CBCBCB" />
<rect x="7296" y="14208" width="128" height="128" fill="#CBCBCB" />
<rect x="7424" y="14208" width="128" height="128" fill="#CBCBCB" />
<rect x="7680" y="14208" width="128" height="128" fill="#FFFFFF" />
<rect x="7808" y="14208" width="128" height="128" fill="#FFFFFF" />
<rect x="7936" y="14208" width="128" height="128" fill="#FFFFFF" />
<rect x="7168" y="14336" width="128" height="128" fill="#CBCBCB" />
<rect x="7296" y="14336" width="128" height="128" fill="#CBCBCB" />
<rect x="7424" y="14336" width="128" height="128" fill="#CBCBCB" />
<rect x="7680" y="14336" width="128" height="128" fill="#FFFFFF" />
<rect x="7808" y="14336" width="128" height="128" fill="#FFFFFF" />
<rect x="7936" y="14336" width="128" height="128" fill="#FFFFFF" />
<rect x="7168" y="14464" width="128" height="128" fill="#CBCBCB" />
<rect x="7296" y="14464" width="128" height="128" fill="#CBCBCB" />
<rect x="7424" y="14464" width="128" height="128" fill="#CBCBCB" />
<rect x="7680" y="14464" width="128" height="128" fill="#FFFFFF" />
<rect x="7808" y="14464" width="128" height="128" fill="#FFFFFF" />
<rect x="7936" y="14464" width="128" height="128" fill="#FFFFFF" />
<rect x="7168" y="14592" width="128" height="128" fill="#CBCBCB" />
<rect x="7296" y="14592" width="128" height="128" fill="#CBCBCB" />
<rect x="7424" y="14592" width="128" height="128" fill="#CBCBCB" />
<rect x="7680" y="14592" width="128" height="128" fill="#FFFFFF" />
<rect x="7808" y="14592" width="128" height="128" fill="#FFFFFF" />
<rect x="7936" y="14592" width="128" height="128" fill="#FFFFFF" />
<rect x="7168" y="14720" width="128" height="128" fill="#CBCBCB" />
<rect x="7296" y="14720" width="128" height="128" fill="#CBCBCB" />
<rect x="7424" y="14720" width="128" height="128" fill="#CBCBCB" />
<rect x="7680" y="14720" width="128" height="128" fill="#FFFFFF" />
<rect x="7808" y="14720" width="128" height="128" fill="#FFFFFF" />
<rect x="7936" y="14720" width="128" height="128" fill="#FFFFFF" />
<rect x="7168" y="14848" width="128" height="128" fill="#CBCBCB" />
<rect x="7296" y="14848" width="128" height="128" fill="#CBCBCB" />
<rect x="7424" y="14848" width="128" height="128" fill="#CBCBCB" />
<rect x="7680" y="14848" width="128" height="128" fill="#FFFFFF" />
<rect x="7808" y="14848" width="128" height="128" fill="#FFFFFF" />
<rect x="7936" y="14848" width="128" height="128" fill="#FFFFFF" />
<rect x="7168" y="14976" width="128" height="128" fill="#CBCBCB" />
<rect x="7296" y="14976" width="128" height="128" fill="#CBCBCB" />
<rect x="7424" y="14976" width="128" height="128" fill="#CBCBCB" />
<rect x="7680" y="14976" width="128" height="128" fill="#FFFFFF" />
<rect x="7808" y="14976" width="128" height="128" fill="#FFFFFF" />
<rect x="7936" y="14976" width="128" height="128" fill="#FFFFFF" />
<rect x="7168" y="15104" width="128" height="128" fill="#CBCBCB" />
<rect x="7296" y="15104" width="128" height="128" fill="#CBCBCB" />
<rect x="7424" y="15104" width="128" height="128" fill="#CBCBCB" />
<rect x="7680" y="15104" width="128" height="128" fill="#FFFFFF" />
<rect x="7808" y="15104" width="128" height="128" fill="#FFFFFF" />
<rect x="7936" y="15104" width="128" height="128" fill="#FFFFFF" />
<rect x="7168" y="15232" width="128" height="128" fill="#CBCBCB" />
<rect x="7296" y="15232" width="128" height="128" fill="#CBCBCB" />
<rect x="7424" y="15232" width="128" height="128" fill="#CBCBCB" />
<rect x="7680" y="15232" width="128" height="128" fill="#FFFFFF" />
<rect x="7808" y="15232" width="128" height="128" fill="#FFFFFF" />
<rect x="7936" y="15232" width="128" height="128" fill="#FFFFFF" />
<rect x="7040" y="15360" width="128" height="128" fill="#CBCBCB" />
<rect x="7168" y="15360" width="128" height="128" fill="#CBCBCB" />
<rect x="7296" y="15360" width="128" height="128" fill="#CBCBCB" />
<rect x="7552" y="15360" width="128" height="128" fill="#FFFFFF" />
<rect x="7680" y="15360" width="128" height="128" fill="#FFFFFF" />
<rect x="7808" y="15360" width="128" height="128" fill="#FFFFFF" />
<rect x="7936" y="15360" width="128" height="128" fill="#FFFFFF" />
<rect x="6912" y="15488" width="128" height="128" fill="#CBCBCB" />
<rect x="7040" y="15488" width="128" height="128" fill="#CBCBCB" />
<rect x="7168" y="15488" width="128" height="128" fill="#CBCBCB" />
<rect x="7296" y="15488" width="128" height="128" fill="#FFFFFF" />
<rect x="7424" y="15488" width="128" height="128" fill="#FFFFFF" />
<rect x="7552" y="15488" width="128" height="128" fill="#FFFFFF" />
<rect x="7680" y="15488" width="128" height="128" fill="#FFFFFF" />
<rect x="7808" y="15488" width="128" height="128" fill="#FFFFFF" />
<rect x="7936" y="15488" width="128" height="128" fill="#FFFFFF" />
<rect x="6784" y="15616" width="128" height="128" fill="#CBCBCB" />
<rect x="6912" y="15616" width="128" height="128" fill="#CBCBCB" />
<rect x="7040" y="15616" width="128" height="128" fill="#CBCBCB" />
<rect x="7168" y="15616" width="128" height="128" fill="#FFFFFF" />
<rect x="7296" y="15616" width="128" height="128" fill="#FFFFFF" />
<rect x="7424" y="15616" width="128" height="128" fill="#FFFFFF" />
<rect x="7552" y="15616" width="128" height="128" fill="#FFFFFF" />
<rect x="7680" y="15616" width="128" height="128" fill="#FFFFFF" />
<rect x="7808" y="15616" width="128" height="128" fill="#FFFFFF" />
<rect x="7936" y="15616" width="128" height="128" fill="#FFFFFF" />
<rect x="6912" y="15744" width="128" height="128" fill="#CBCBCB" />
<rect x="7040" y="15744" width="128" height="128" fill="#FFFFFF" />
<rect x="7168" y="15744" width="128" height="128" fill="#FFFFFF" />
<rect x="7296" y="15744" width="128" height="128" fill="#FFFFFF" />
<rect x="7424" y="15744" width="128" height="128" fill="#FFFFFF" />
<rect x="7552" y="15744" width="128" height="128" fill="#FFFFFF" />
<rect x="7680" y="15744" width="128" height="128" fill="#FFFFFF" />
<rect x="7808" y="15744" width="128" height="128" fill="#FFFFFF" />
<rect x="7936" y="15744" width="128" height="128" fill="#FFFFFF" />
<rect x="8064" y="15744" width="128" height="128" fill="#FFFFFF" />
<rect x="7040" y="15872" width="128" height="128" fill="#FFFFFF" />
<rect x="7296" y="15872" width="128" height="128" fill="#FFFFFF" />
<rect x="7424" y="15872" width="128" height="128" fill="#FFFFFF" />
<rect x="7552" y="15872" width="128" height="128" fill="#FFFFFF" />
<rect x="7680" y="15872" width="128" height="128" fill="#FFFFFF" />
<rect x="7808" y="15872" width="128" height="128" fill="#FFFFFF" />
<rect x="7936" y="15872" width="128" height="128" fill="#FFFFFF" />
<rect x="7552" y="16000" width="128" height="128" fill="#FFFFFF" />
<rect x="7680" y="16000" width="128" height="128" fill="#FFFFFF" />
<rect x="7808" y="16000" width="128" height="128" fill="#FFFFFF" />
</svg>